<?xml version="1.0" encoding="iso-8859-1"?>
<!-- Generator: Adobe Illustrator 18.0.0, SVG Export Plug-In . SVG Version: 6.00 Build 0)  -->
<!DOCTYPE svg PUBLIC "-//W3C//DTD SVG 1.1//EN" "http://www.w3.org/Graphics/SVG/1.1/DTD/svg11.dtd">
<svg version="1.1" id="Capa_1" xmlns="http://www.w3.org/2000/svg" xmlns:xlink="http://www.w3.org/1999/xlink" x="0px" y="0px"
	 viewBox="0 0 337.1 337.1" style="enable-background:new 0 0 337.1 337.1;" xml:space="preserve">
<g>
	<path d="M183.489,337.095H337.1V183.499h-153.61V337.095z M212.457,223.686h95.689v22.734h-95.689V223.686z M212.457,274.179
		h95.689v22.728h-95.689V274.179z"/>
	<path d="M0,337.095h153.618V183.499H0V337.095z M34.945,234.501l16.059-16.058l25.795,25.796l25.801-25.794l16.078,16.056
		l-25.796,25.793l25.796,25.795L102.6,302.165l-25.803-25.803l-25.793,25.803l-16.059-16.076l25.793-25.795L34.945,234.501z"/>
	<path d="M183.489,0.005v153.6H337.1V0.005H183.489z M308.146,88.172h-95.689V65.445h95.689V88.172z"/>
	<path d="M0,153.605h153.618V0.005H0V153.605z M28.964,65.445h36.491V28.973h22.708v36.473h36.492v22.727H88.163v36.483H65.455
		V88.172H28.964V65.445z"/>
</g>
<g>
</g>
<g>
</g>
<g>
</g>
<g>
</g>
<g>
</g>
<g>
</g>
<g>
</g>
<g>
</g>
<g>
</g>
<g>
</g>
<g>
</g>
<g>
</g>
<g>
</g>
<g>
</g>
<g>
</g>
</svg>
